# xmcd
#
# Track frame offsets:
#	225
#	13348
#	24974
#	38685
#	51947
#	70667
#	83892
#	98270
#	113494
#	125366
#	139668
#	156521
#	170113
#	187451
#	203611
#
# Disc length: 3037 seconds
#
# Revision: 0
# Processed by: cddbd v1.5.1PL0 Copyright (c) Steve Scherf et al.
# Submitted via: audiograbber 1.83.01
#
DISCID=c70bda0f
DTITLE=Angela Lidin - Angel's touch
DYEAR=1900
DGENRE=Country
TTITLE0=Lisa's song
TTITLE1=Hearts may be broken
TTITLE2=Wish it away
TTITLE3=Rhythms
TTITLE4=Crazy dad
TTITLE5=Feeling
TTITLE6=Maria Magdalena
TTITLE7=No more
TTITLE8=Sweet love
TTITLE9=Sleep my child
TTITLE10=Empty rooms
TTITLE11=My conscience is clear
TTITLE12=Angel's touch
TTITLE13=Lonely Su´nday morning
TTITLE14=Echoes
EXTD=
EXTT0=
EXTT1=
EXTT2=
EXTT3=
EXTT4=
EXTT5=
EXTT6=
EXTT7=
EXTT8=
EXTT9=
EXTT10=
EXTT11=
EXTT12=
EXTT13=
EXTT14=
PLAYORDER=
